<svg aria-hidden="true" style="position: absolute; width: 0; height: 0; overflow: hidden;" version="1.1" xmlns="http://www.w3.org/2000/svg" xmlns:xlink="http://www.w3.org/1999/xlink">
<defs>
<symbol id="cell_wifi" viewBox="0 0 32 32">
<path fill="#000" style="fill: var(--color1, #000)" opacity="0.3" d="M8 29.333h21.333v-21.333l-21.333 21.333z"></path>
<path fill="#000" style="fill: var(--color1, #000)" d="M24 13.333l-16 16h16v-16zM5.24 7.907l1.72 1.72c4.253-4.253 11.173-4.253 15.427 0l1.72-1.72c-5.213-5.213-13.667-5.213-18.867 0zM12.093 14.76l2.573 2.573 2.573-2.573c-0.66-0.655-1.569-1.060-2.573-1.060s-1.913 0.405-2.574 1.060l0-0zM8.667 11.333l1.72 1.72c2.36-2.36 6.2-2.36 8.573 0l1.707-1.72c-1.537-1.532-3.658-2.48-6-2.48s-4.463 0.947-6 2.48l0-0z"></path>
</symbol>
<symbol id="network_wifi" viewBox="0 0 32 32">
<path fill="#000" style="fill: var(--color1, #000)" opacity="0.3" d="M16.013 28.653l15.507-19.32c-0.6-0.453-6.573-5.333-15.52-5.333-8.96 0-14.92 4.88-15.52 5.333l15.52 19.333 0.013-0.013z"></path>
<path fill="#000" style="fill: var(--color1, #000)" d="M4.707 14.6l11.293 14.067 0.013-0.013 11.28-14.053c-0.573-0.44-4.88-3.933-11.293-3.933s-10.72 3.493-11.293 3.933z"></path>
</symbol>
<symbol id="perm_scan_wifi" viewBox="0 0 32 32">
<path d="M16 4c-6.733 0-11.8 2.467-16 5.64l16 19.693 16-19.667c-4.2-3.173-9.267-5.667-16-5.667zM17.333 21.333h-2.667v-8h2.667v8zM14.667 10.667v-2.667h2.667v2.667h-2.667z"></path>
</symbol>
<symbol id="portable_wifi_off" viewBox="0 0 32 32">
<path d="M23.413 18.987c0.373-0.92 0.587-1.933 0.587-2.987 0-4.413-3.587-8-8-8-1.053 0-2.067 0.213-2.987 0.587l2.16 2.16c0.267-0.040 0.547-0.080 0.827-0.080 0 0 0.001 0 0.001 0 2.945 0 5.332 2.387 5.332 5.332 0 0.297-0.024 0.588-0.071 0.872l0.004-0.031 2.147 2.147zM16 5.333c5.893 0 10.667 4.773 10.667 10.667 0 1.8-0.467 3.493-1.267 4.987l1.96 1.96c1.239-1.968 1.973-4.362 1.973-6.928 0-0.007 0-0.013 0-0.020v0.001c0-7.36-5.973-13.333-13.333-13.333-2.547 0-4.92 0.733-6.947 1.96l1.947 1.947c1.493-0.787 3.2-1.24 5-1.24zM4.36 3.333l-1.693 1.693 2.8 2.8c-1.747 2.267-2.8 5.093-2.8 8.173 0 4.933 2.68 9.227 6.653 11.533l1.333-2.307c-3.173-1.853-5.32-5.28-5.32-9.227 0-2.347 0.76-4.507 2.040-6.253l1.907 1.92c-0.8 1.24-1.28 2.733-1.28 4.333 0 2.96 1.613 5.533 4 6.92l1.333-2.32c-1.587-0.933-2.667-2.627-2.667-4.6 0-0.867 0.227-1.667 0.587-2.387l2.107 2.107-0.027 0.28c0 1.467 1.2 2.667 2.667 2.667l0.28-0.027 10.027 10.027 1.693-1.693-23.64-23.64z"></path>
</symbol>
<symbol id="signal_wifi_0_bar" viewBox="0 0 32 32">
<path d="M16.013 28.653l15.507-19.32c-0.6-0.453-6.573-5.333-15.52-5.333-8.96 0-14.92 4.88-15.52 5.333l15.52 19.333 0.013-0.013z"></path>
</symbol>
<symbol id="signal_wifi_1_bar" viewBox="0 0 32 32">
<path fill="#000" style="fill: var(--color1, #000)" opacity="0.3" d="M16.013 28.653l15.507-19.32c-0.6-0.453-6.573-5.333-15.52-5.333-8.96 0-14.92 4.88-15.52 5.333l15.52 19.333 0.013-0.013z"></path>
<path fill="#000" style="fill: var(--color1, #000)" d="M8.893 19.813l7.107 8.84v0.013l0.013-0.013 7.107-8.84c-0.373-0.28-3.080-2.48-7.12-2.48s-6.747 2.2-7.107 2.48z"></path>
</symbol>
<symbol id="signal_wifi_1_bar_lock" viewBox="0 0 32 32">
<path fill="#000" style="fill: var(--color1, #000)" d="M30.667 21.333v-2c0-1.867-1.467-3.333-3.333-3.333s-3.333 1.467-3.333 3.333v2c-0.667 0-1.333 0.667-1.333 1.333v5.333c0 0.667 0.667 1.333 1.333 1.333h6.667c0.667 0 1.333-0.667 1.333-1.333v-5.333c0-0.667-0.667-1.333-1.333-1.333zM29.333 21.333h-4v-2c0-1.067 0.933-2 2-2s2 0.933 2 2v2z"></path>
<path fill="#000" style="fill: var(--color1, #000)" opacity="0.3" d="M20.667 19.333c0-3.733 2.933-6.667 6.667-6.667 0.533 0 0.933 0 1.333 0.133l2.8-3.467c-0.533-0.4-6.533-5.333-15.467-5.333s-14.933 4.933-15.467 5.333l15.467 19.333 4.667-5.733v-3.6z"></path>
<path fill="#000" style="fill: var(--color1, #000)" d="M8.933 19.867l7.067 8.8 4.667-5.733v-3.467c0-0.267 0-0.667 0.133-0.933-1.2-0.667-2.933-1.2-4.8-1.2-4 0-6.8 2.267-7.067 2.533z"></path>
</symbol>
<symbol id="signal_wifi_2_bar" viewBox="0 0 32 32">
<path fill="#000" style="fill: var(--color1, #000)" opacity="0.3" d="M16.013 28.653l15.507-19.32c-0.6-0.453-6.573-5.333-15.52-5.333-8.96 0-14.92 4.88-15.52 5.333l15.52 19.333 0.013-0.013z"></path>
<path fill="#000" style="fill: var(--color1, #000)" d="M6.387 16.693l9.6 11.973h0.013l0.013-0.013 9.6-11.973c-0.48-0.36-4.147-3.347-9.613-3.347s-9.133 2.987-9.613 3.36z"></path>
</symbol>
<symbol id="signal_wifi_2_bar_lock" viewBox="0 0 32 32">
<path fill="#000" style="fill: var(--color1, #000)" d="M30.667 21.333v-2c0-1.867-1.467-3.333-3.333-3.333s-3.333 1.467-3.333 3.333v2c-0.667 0-1.333 0.667-1.333 1.333v5.333c0 0.667 0.667 1.333 1.333 1.333h6.667c0.667 0 1.333-0.667 1.333-1.333v-5.333c0-0.667-0.667-1.333-1.333-1.333zM29.333 21.333h-4v-2c0-1.067 0.933-2 2-2s2 0.933 2 2v2z"></path>
<path fill="#000" style="fill: var(--color1, #000)" opacity="0.3" d="M20.667 19.333c0-3.733 2.933-6.667 6.667-6.667 0.533 0 0.933 0 1.333 0.133l2.8-3.467c-0.533-0.4-6.533-5.333-15.467-5.333s-14.933 4.933-15.467 5.333l15.467 19.333 4.667-5.733v-3.6z"></path>
<path fill="#000" style="fill: var(--color1, #000)" d="M6.4 16.667l9.6 12 4.667-5.867v-3.467c0-1.733 0.667-3.333 1.867-4.533-1.733-0.8-3.867-1.467-6.533-1.467-5.467 0-9.067 2.933-9.6 3.333z"></path>
</symbol>
<symbol id="signal_wifi_3_bar" viewBox="0 0 32 32">
<path fill="#000" style="fill: var(--color1, #000)" opacity="0.3" d="M16.013 28.653l15.507-19.32c-0.6-0.453-6.573-5.333-15.52-5.333-8.96 0-14.92 4.88-15.52 5.333l15.52 19.333 0.013-0.013z"></path>
<path fill="#000" style="fill: var(--color1, #000)" d="M4.707 14.6l11.293 14.067 0.013-0.013 11.28-14.053c-0.573-0.44-4.88-3.933-11.293-3.933s-10.72 3.493-11.293 3.933z"></path>
</symbol>
<symbol id="signal_wifi_3_bar_lock" viewBox="0 0 32 32">
<path fill="#000" style="fill: var(--color1, #000)" opacity="0.3" d="M16 4c-8.933 0-14.933 4.933-15.467 5.333l4.267 5.2 11.2 14.133 4.667-5.733v-3.467c0-2.933 1.867-5.333 4.4-6.267 0.4-0.133 0.667-0.267 1.067-0.267 0.4-0.133 0.8-0.133 1.2-0.133 0.533 0 0.933 0 1.333 0.133l2.8-3.6c-0.533-0.4-6.533-5.333-15.467-5.333z"></path>
<path fill="#000" style="fill: var(--color1, #000)" d="M30.667 21.333v-2c0-1.867-1.467-3.333-3.333-3.333s-3.333 1.467-3.333 3.333v2c-0.667 0-1.333 0.667-1.333 1.333v5.333c0 0.667 0.667 1.333 1.333 1.333h6.667c0.667 0 1.333-0.667 1.333-1.333v-5.333c0-0.667-0.667-1.333-1.333-1.333zM29.333 21.333h-4v-2c0-1.067 0.933-2 2-2s2 0.933 2 2v2zM16 28.667l4.667-5.733v-3.467c0-2.933 1.867-5.333 4.4-6.267-2-1.2-5.2-2.533-9.067-2.533-6.4 0-10.667 3.467-11.333 3.867z"></path>
</symbol>
<symbol id="signal_wifi_4_bar" viewBox="0 0 32 32">
<path d="M16.013 28.653l15.507-19.32c-0.6-0.453-6.573-5.333-15.52-5.333-8.96 0-14.92 4.88-15.52 5.333l15.52 19.333 0.013-0.013z"></path>
</symbol>
<symbol id="signal_wifi_4_bar_lock" viewBox="0 0 32 32">
<path d="M30.667 21.333v-2c0-1.867-1.467-3.333-3.333-3.333s-3.333 1.467-3.333 3.333v2c-0.667 0-1.333 0.667-1.333 1.333v5.333c0 0.667 0.667 1.333 1.333 1.333h6.667c0.667 0 1.333-0.667 1.333-1.333v-5.333c0-0.667-0.667-1.333-1.333-1.333zM29.333 21.333h-4v-2c0-1.067 0.933-2 2-2s2 0.933 2 2v2zM20.667 19.333c0-3.733 2.933-6.667 6.667-6.667 0.533 0 0.933 0 1.333 0.133l2.8-3.467c-0.533-0.4-6.533-5.333-15.467-5.333s-14.933 4.933-15.467 5.333l15.467 19.333 4.667-5.867v-3.467z"></path>
</symbol>
<symbol id="signal_wifi_off" viewBox="0 0 32 32">
<path d="M31.52 9.333c-0.6-0.453-6.573-5.333-15.52-5.333-2 0-3.853 0.253-5.533 0.64l13.773 13.76 7.28-9.067zM22.72 20.293l-18.36-18.373-1.693 1.707 2.733 2.747c-2.853 1.307-4.613 2.72-4.92 2.96l15.52 19.333 0.013-0.013 5.2-6.48 4.427 4.427 1.693-1.693-4.613-4.613z"></path>
</symbol>
<symbol id="wifi" viewBox="0 0 32 32">
<path d="M1.333 12l2.667 2.667c6.627-6.627 17.373-6.627 24 0l2.667-2.667c-8.093-8.093-21.227-8.093-29.333 0zM12 22.667l4 4 4-4c-1.023-1.026-2.437-1.66-4-1.66s-2.977 0.634-4 1.66l-0 0zM6.667 17.333l2.667 2.667c1.707-1.705 4.063-2.76 6.667-2.76s4.96 1.055 6.667 2.76l-0-0 2.667-2.667c-5.147-5.147-13.507-5.147-18.667 0z"></path>
</symbol>
<symbol id="wifi_calling" viewBox="0 0 32 32">
<path d="M29.333 6.6c-0.28-0.227-3.107-2.6-7.333-2.6-4.24 0-7.053 2.373-7.333 2.6l7.333 9.4 7.333-9.4z"></path>
<path d="M26.667 20.68c-1.653 0-3.267-0.267-4.76-0.76-0.126-0.044-0.271-0.069-0.422-0.069-0.366 0-0.698 0.149-0.938 0.389l-2.933 2.933c-3.797-1.97-6.817-4.99-8.734-8.675l-0.053-0.112 2.933-2.933c0.373-0.373 0.48-0.893 0.333-1.36-0.482-1.414-0.76-3.044-0.76-4.738 0-0.008 0-0.016 0-0.024v0.001c0-0.733-0.6-1.333-1.333-1.333h-4.667c-0.733 0-1.333 0.6-1.333 1.333 0 12.52 10.147 22.667 22.667 22.667 0.733 0 1.333-0.6 1.333-1.333v-4.653c0-0.733-0.6-1.333-1.333-1.333z"></path>
</symbol>
<symbol id="wifi_lock" viewBox="0 0 32 32">
<path d="M27.333 12.667c0.373 0 0.733 0.053 1.080 0.107l3.587-4.773c-4.453-3.347-10-5.333-16-5.333s-11.547 1.987-16 5.333l16 21.333 4.667-6.227v-3.773c0-3.68 2.987-6.667 6.667-6.667zM30.667 21.333v-2c0-1.841-1.492-3.333-3.333-3.333s-3.333 1.492-3.333 3.333v0 2c-0.733 0-1.333 0.6-1.333 1.333v5.333c0 0.733 0.6 1.333 1.333 1.333h6.667c0.733 0 1.333-0.6 1.333-1.333v-5.333c0-0.733-0.6-1.333-1.333-1.333zM29.333 21.333h-4v-2c0-1.107 0.893-2 2-2s2 0.893 2 2v2z"></path>
</symbol>
<symbol id="wifi_off" viewBox="0 0 32 32">
<path d="M30.653 12c-5.12-5.12-12.253-6.987-18.867-5.627l3.36 3.36c4.627-0.227 9.32 1.4 12.84 4.933l2.667-2.667zM25.32 17.333c-1.607-1.607-3.631-2.796-5.896-3.393l-0.091-0.020 4.707 4.707 1.28-1.293zM2.667 4.067l4.093 4.067c-1.96 0.96-3.8 2.24-5.427 3.867l2.653 2.667c1.653-1.653 3.56-2.88 5.6-3.693l2.987 2.987c-2.324 0.612-4.321 1.787-5.907 3.373v0 0.013l2.653 2.653c1.681-1.68 3.996-2.725 6.556-2.747l0.004-0 9.427 9.413 1.693-1.68-22.613-22.6-1.72 1.68zM12 22.667l4 4 4-4c-1.023-1.026-2.437-1.66-4-1.66s-2.977 0.634-4 1.66l-0 0z"></path>
</symbol>
<symbol id="wifi_protected_setup" viewBox="0 0 32 32">
<path d="M22.28 7.053l3.053-3.053h-10.667v10.667l3.067-3.067c2.627 1.947 4.333 5.040 4.333 8.56 0 1.747-0.427 3.387-1.173 4.84 3.107-2.027 5.173-5.52 5.173-9.507 0-3.36-1.48-6.36-3.787-8.44z"></path>
<path d="M9.947 11.84c0-1.747 0.427-3.387 1.173-4.84-3.132 2.045-5.173 5.533-5.173 9.498 0 0.003 0 0.006 0 0.009v-0c0 3.36 1.467 6.36 3.787 8.44l-3.067 3.053h10.667v-10.667l-3.067 3.067c-2.613-1.947-4.32-5.040-4.32-8.56z"></path>
</symbol>
<symbol id="wifi_tethering" viewBox="0 0 32 32">
<path d="M16 14.667c-1.467 0-2.667 1.2-2.667 2.667s1.2 2.667 2.667 2.667 2.667-1.2 2.667-2.667-1.2-2.667-2.667-2.667zM24 17.333c0-4.413-3.587-8-8-8s-8 3.587-8 8c0 2.96 1.613 5.533 4 6.92l1.333-2.32c-1.587-0.933-2.667-2.627-2.667-4.6 0-2.947 2.387-5.333 5.333-5.333s5.333 2.387 5.333 5.333c0 1.973-1.080 3.667-2.667 4.6l1.333 2.32c2.387-1.387 4-3.96 4-6.92zM16 4c-7.36 0-13.333 5.973-13.333 13.333 0 4.933 2.68 9.227 6.653 11.533l1.333-2.307c-3.173-1.853-5.32-5.28-5.32-9.227 0-5.893 4.773-10.667 10.667-10.667s10.667 4.773 10.667 10.667c0 3.947-2.147 7.373-5.333 9.227l1.333 2.307c3.987-2.307 6.667-6.6 6.667-11.533 0-7.36-5.973-13.333-13.333-13.333z"></path>
</symbol>
</defs>
</svg>
